<svg xmlns="http://www.w3.org/2000/svg" viewBox="0 0 240 64" width="240" height="64">
  <circle cx="32" cy="32" r="22" fill="#0f4c5c"/>
  <path d="M32 22c-1.6 0-2.4.8-3.2.8s-1.6-.8-3.2-.8c-1.6 0-2.4 1.6-2.4 4 0 3.2 1.6 6.4 2.4 9.6.8 2.4 2.4 2.4 3.2 0l.8-2.4c.24-.8 1.36-.8 1.6 0l.8 2.4c.8 2.4 2.4 2.4 3.2 0 .8-3.2 2.4-6.4 2.4-9.6 0-2.4-.8-4-2.4-4-1.6 0-2.4.8-3.2.8z" fill="none" stroke="#fff" stroke-width="1.6" stroke-linecap="round" stroke-linejoin="round"/>
  <text x="64" y="36" font-family="Georgia, 'Times New Roman', serif" font-size="20" fill="#0f4c5c">Zahnärztehaus Arch</text>
  <text x="64" y="52" font-family="system-ui, sans-serif" font-size="9" letter-spacing="1.2" fill="#57534e">PRAXIS IM SEELAND</text>
</svg>
